<svg xmlns="http://www.w3.org/2000/svg" viewBox="0 0 48 48" width="48" height="48" role="img" aria-label="飞书">
  <defs>
    <linearGradient id="feishu-a" x1="6" y1="34" x2="42" y2="14" gradientUnits="userSpaceOnUse">
      <stop offset="0" stop-color="#1F6FFF"/>
      <stop offset="1" stop-color="#00D6B9"/>
    </linearGradient>
  </defs>
  <rect width="48" height="48" rx="10" fill="url(#feishu-a)"/>
  <path d="M12 31.5c5.4 0 9.3-2.4 12.3-6.4 2.6-3.5 4.7-5.7 8-5.7 1.4 0 2.6.4 3.7 1.1-1.3-3.6-4.6-6-8.6-6-4.6 0-7.4 2.6-10.2 6.4C14.9 24.1 13.4 26 10 26c-.7 0-1.4-.1-2-.3 1 2.7 2.2 4.4 4 5.8z" fill="#fff" opacity=".95"/>
  <path d="M36 22.5c-2.6 0-4.3 1.6-6.4 4.4-1.4 1.9-2.9 3.6-4.8 4.9 2.1 1.1 4.6 1.7 7.4 1.7 2.4 0 4.5-.4 6.2-1.1.9-1.9 1.4-4 1.4-6.2 0-1.4-.2-2.7-.6-4-1-.6-2-.9-3.2-.9z" fill="#fff" opacity=".75"/>
</svg>
